<?xml version="1.0" encoding="UTF-8" standalone="no"?>
<!DOCTYPE svg PUBLIC "-//W3C//DTD SVG 1.1//EN" "http://www.w3.org/Graphics/SVG/1.1/DTD/svg11.dtd">
<svg version="1.1" xmlns="http://www.w3.org/2000/svg" xmlns:xlink="http://www.w3.org/1999/xlink" preserveAspectRatio="xMidYMid meet" viewBox="0 0 256 256" width="256" height="256"><defs><path d="M251.74 128.94C251.74 197.38 196.17 252.94 127.74 252.94C59.3 252.94 3.74 197.38 3.74 128.94C3.74 60.51 59.3 4.94 127.74 4.94C196.17 4.94 251.74 60.51 251.74 128.94Z" id="c4v8SZXOiY"></path><path d="M237.4 128.7C237.4 190.43 187.85 240.54 126.81 240.54C65.78 240.54 16.22 190.43 16.22 128.7C16.22 66.97 65.78 16.86 126.81 16.86C187.85 16.86 237.4 66.97 237.4 128.7Z" id="c1mdBuENFy"></path><path d="M231.18 128.7C231.18 187.12 184.41 234.55 126.81 234.55C69.21 234.55 22.44 187.12 22.44 128.7C22.44 70.28 69.21 22.85 126.81 22.85C184.41 22.85 231.18 70.28 231.18 128.7Z" id="f1juajuMm6"></path><path d="M224.78 80.57L182.14 181.54L153.28 124.09L124.44 181.53L81.16 88.87L37.88 186.53" id="b1XaJIlMS"></path><path d="M238.97 76.65L231.7 97.76L222.29 94.22L223.26 91.4L229.55 73.11L238.97 76.65Z" id="bElThsOQz"></path><path d="M231.08 173.01L220.34 192.43L211.68 187.2L222.42 167.78L231.08 173.01Z" id="aF1dK7Q3k"></path><path d="M227.9 94.61L229.57 99.49L231.8 104.37L233.75 109.25L234.58 114.42L235.14 119.59L235.14 124.76L235.42 130.79L235.42 136.25L235.42 141.42L235.14 146.59L234.58 151.76L233.47 156.93L231.52 161.81L230.41 166.98L229.01 171.86" id="a4xXaBfrn"></path></defs><g><g><g><use xlink:href="#c4v8SZXOiY" opacity="1" fill="#fff6e5" fill-opacity="1"></use></g><g><use xlink:href="#c1mdBuENFy" opacity="1" fill="#3f464c" fill-opacity="1"></use></g><g><use xlink:href="#f1juajuMm6" opacity="1" fill="#fff6e5" fill-opacity="1"></use></g><g><g><use xlink:href="#b1XaJIlMS" opacity="1" fill-opacity="0" stroke="#3f464c" stroke-width="5" stroke-opacity="1"></use></g></g><g><use xlink:href="#bElThsOQz" opacity="1" fill="#fff6e5" fill-opacity="1"></use></g><g><use xlink:href="#aF1dK7Q3k" opacity="1" fill="#fff6e5" fill-opacity="1"></use></g><g><use xlink:href="#a4xXaBfrn" opacity="1" fill="#fff6e5" fill-opacity="1"></use><g><use xlink:href="#a4xXaBfrn" opacity="1" fill-opacity="0" stroke="#fff6e5" stroke-width="13" stroke-opacity="1"></use></g></g></g></g></svg>